# Blender 4.3.0
# www.blender.org
mtllib Piramide.mtl
usemtl pyramidMaterial
o Pyramid
v -0.500000 0.000000 0.500000
v 0.500000 0.000000 0.500000
v 0.500000 0.000000 -0.500000
v -0.500000 0.000000 -0.500000
v 0.000000 1.000000 0.000000
vt 0.000000 0.000000
vt 1.000000 0.000000
vt 1.000000 1.000000
vt 0.000000 1.000000
vt 0.500000 0.500000
vn 0.0000 0.7071 0.7071
vn 0.7071 0.7071 0.0000
vn 0.0000 0.7071 -0.7071
vn -0.7071 0.7071 0.0000
vn 0.0000 -1.0000 0.0000
s 0
f 1/1/1 2/2/1 5/5/1
f 2/2/2 3/3/2 5/5/2
f 3/3/3 4/4/3 5/5/3
f 4/4/4 1/1/4 5/5/4
f 1/1/5 4/4/5 3/3/5
f 1/1/5 3/3/5 2/2/5